<svg xmlns="http://www.w3.org/2000/svg" viewBox="0 0 256 256" fill="none">
  <rect width="256" height="256" rx="48" fill="#1C1917"/>
  <g transform="scale(0.82) translate(23, 23)">
    <path d="m250 25.4-0.58-0.4-43.38 35.81-77.75 58.8-0.26-0.2-120.3-94.41-0.58 0.4c-2.09 8.32-6.49 29.93 2.65 51.38 3.54 8.5 8.1 15.03 11.04 18.5-2.94 8.27-4.02 17.8-2.96 26.84 3.57 27.34 26.02 49.66 55.02 50.2 10.75 0.22 19.94-2.14 26.53-4.9l23.94 62.43h9.28l24.43-61.84c7.36 3.03 14.67 4.3 22.48 4.3 28.42 0 54.4-20.62 58.87-50.25 1.41-10.23 0-19.89-3.25-26.93 5.66-7.05 11.58-16.42 15.11-28.55 5.13-17.27 2.54-31.37-0.25-41.18zm-122 72.61-0.05 0.05-0.05-0.06-62.53-50.39c-5.34-5.52-6.22-14.44-6.57-22.4l34.07 26.17c11.82-7.56 23.93-9.07 33.51-8.91 12.6 0 24.58 3.87 37.49 9.29l33.04-26.55c-0.5 8.56-2.21 17.96-9.03 23.98l-59.88 48.82z" fill="#FEFFFE"/>
    <path d="m16.49 48.94c0.83 14.99 5.67 28.79 20.33 41.01l-0.08 0.06c-3.92 8.07-5.63 17.25-5.13 27.8 1.21 20.14 17.1 40.48 40.08 40.38 5.4 0.08 9.42-0.38 13.75-1.59l14.33 11.17 0.29-0.65 23.35 62.73h9.31l24.15-62.08 13.44-11.03c3.77 1.22 6.8 1.24 11.17 1.55 22.58 0 41.54-18.15 43.01-37.89 1.14-11.64-1.57-20.62-5.46-29 12.62-11.34 19.66-23.59 20.66-42.46l-111.7 87.24-111.5-87.24zm31.57 50.59 11.23 8.79c-1.32 2.74-1.94 5.66-1.82 9.29 0.45 8.75 6.7 15.3 15.15 15.2 6.25 0 11.26-2.39 13.9-6.88l32.54 25.03 8.6 33.5 7.76-33.75 34.26-24.62c3.93 4.15 7.75 6.72 13.9 6.72 9.35-0.2 14.75-7.95 14.14-15.4-0.2-3.65-1.01-6.24-1.91-8.75l11.92-9.33c3.39 6.38 4.4 11.15 4.09 19.1-0.9 15.49-13.65 28.24-28.44 28.24-6.66 0-10.27-1.66-13.59-3.98l-22.08 17-16.1 59.27h-7.34l-16.26-59.27-21.2-16.79c-4.19 2.8-8.69 3.77-14.65 3.77-15.15-0.7-27.67-13.66-27.97-29.06 0.1-7.25 1.42-12.3 3.87-18.08z" fill="#2563eb"/>
    <path d="m103 59.96c8.75-5.07 16.2-6.83 24.68-6.83 8.6 0 16.4 2.41 24.97 6.98l-24.97 21-24.68-21.15z" fill="#60a5fa"/>
  </g>
</svg>
